M48
;DRILL file {KiCad 4.0.4-stable} date 03/14/17 02:38:00
;FORMAT={-:-/ absolute / metric / decimal}
FMAT,2
METRIC,TZ
T1C0.400
T2C0.600
T3C0.914
T4C1.000
T5C1.999
%
G90
G05
M71
T1
X130.81Y-97.028
X130.81Y-104.013
X132.715Y-98.425
X133.35Y-92.71
X133.35Y-95.25
X133.985Y-101.6
X133.985Y-104.14
X135.89Y-96.52
X135.89Y-98.425
X136.525Y-101.6
X137.795Y-98.425
X138.43Y-101.6
X138.777Y-92.837
X140.716Y-92.837
X142.81Y-92.329
X144.78Y-104.14
X146.304Y-89.662
X146.558Y-98.806
X146.558Y-100.076
X146.685Y-96.266
X149.352Y-89.662
X149.352Y-101.346
X151.638Y-89.662
X154.178Y-89.662
X162.56Y-90.17
X162.56Y-106.68
X164.465Y-90.17
X164.465Y-106.68
X166.37Y-90.17
X166.37Y-106.68
X168.275Y-90.17
X168.275Y-106.68
X173.718Y-96.76
X173.736Y-99.06
T2
X150.495Y-90.805
X150.495Y-106.045
X158.115Y-90.805
X158.115Y-106.045
T3
X147.955Y-106.045
T4
X147.955Y-90.805
X153.035Y-90.805
X153.035Y-106.045
X155.575Y-90.805
X155.575Y-106.045
X160.655Y-90.805
X160.655Y-106.045
T5
X170.18Y-92.71
X170.18Y-104.775
X176.53Y-92.71
X176.53Y-104.775
T0
M30
