%TF.GenerationSoftware,KiCad,Pcbnew,4.0.4-stable*%
%TF.CreationDate,2017-03-14T02:38:26+02:00*%
%TF.ProjectId,esp-4digit-display,6573702D3464696769742D646973706C,rev?*%
%TF.FileFunction,Legend,Bot*%
%FSLAX46Y46*%
G04 Gerber Fmt 4.6, Leading zero omitted, Abs format (unit mm)*
G04 Created by KiCad (PCBNEW 4.0.4-stable) date 03/14/17 02:38:26*
%MOMM*%
%LPD*%
G01*
G04 APERTURE LIST*
%ADD10C,0.200000*%
%ADD11C,0.150000*%
%ADD12C,0.120000*%
G04 APERTURE END LIST*
D10*
D11*
X152824000Y-93096000D02*
X152824000Y-93121000D01*
X148674000Y-93096000D02*
X148674000Y-93201000D01*
X148674000Y-103246000D02*
X148674000Y-103141000D01*
X152824000Y-103246000D02*
X152824000Y-103141000D01*
X152824000Y-93096000D02*
X148674000Y-93096000D01*
X152824000Y-103246000D02*
X148674000Y-103246000D01*
X152824000Y-93121000D02*
X154199000Y-93121000D01*
D12*
X142418000Y-95803000D02*
X143418000Y-95803000D01*
X143418000Y-94443000D02*
X142418000Y-94443000D01*
X142205000Y-106090000D02*
X143205000Y-106090000D01*
X143205000Y-104730000D02*
X142205000Y-104730000D01*
X143205000Y-100920000D02*
X142205000Y-100920000D01*
X142205000Y-102280000D02*
X143205000Y-102280000D01*
X143375000Y-92665000D02*
X142375000Y-92665000D01*
X142375000Y-94025000D02*
X143375000Y-94025000D01*
X142375000Y-92120000D02*
X143375000Y-92120000D01*
X143375000Y-90760000D02*
X142375000Y-90760000D01*
D11*
X136020000Y-90740000D02*
X133220000Y-90740000D01*
X133220000Y-90740000D02*
X133220000Y-92140000D01*
X133220000Y-92140000D02*
X136020000Y-92140000D01*
X136020000Y-92140000D02*
X136020000Y-90740000D01*
X131620000Y-89690000D02*
X131620000Y-90340000D01*
X131620000Y-93190000D02*
X131620000Y-92540000D01*
X137620000Y-92540000D02*
X137620000Y-93190000D01*
X137620000Y-89690000D02*
X137620000Y-90340000D01*
X131620000Y-89690000D02*
X137620000Y-89690000D01*
X137620000Y-93190000D02*
X131620000Y-93190000D01*
X133220000Y-106110000D02*
X136020000Y-106110000D01*
X136020000Y-106110000D02*
X136020000Y-104710000D01*
X136020000Y-104710000D02*
X133220000Y-104710000D01*
X133220000Y-104710000D02*
X133220000Y-106110000D01*
X137620000Y-107160000D02*
X137620000Y-106510000D01*
X137620000Y-103660000D02*
X137620000Y-104310000D01*
X131620000Y-104310000D02*
X131620000Y-103660000D01*
X131620000Y-107160000D02*
X131620000Y-106510000D01*
X137620000Y-107160000D02*
X131620000Y-107160000D01*
X131620000Y-103660000D02*
X137620000Y-103660000D01*
D12*
X142375000Y-102655000D02*
X143375000Y-102655000D01*
X143375000Y-104355000D02*
X142375000Y-104355000D01*
X174626000Y-96642000D02*
X174626000Y-99182000D01*
X172846000Y-99182000D02*
X172846000Y-96642000D01*
X172846000Y-99182000D02*
X174626000Y-99182000D01*
X174626000Y-96642000D02*
X172846000Y-96642000D01*
D11*
X137239285Y-93480000D02*
X137334523Y-93432381D01*
X137477380Y-93432381D01*
X137620238Y-93480000D01*
X137715476Y-93575238D01*
X137763095Y-93670476D01*
X137810714Y-93860952D01*
X137810714Y-94003810D01*
X137763095Y-94194286D01*
X137715476Y-94289524D01*
X137620238Y-94384762D01*
X137477380Y-94432381D01*
X137382142Y-94432381D01*
X137239285Y-94384762D01*
X137191666Y-94337143D01*
X137191666Y-94003810D01*
X137382142Y-94003810D01*
X136763095Y-94432381D02*
X136763095Y-93432381D01*
X136382142Y-93432381D01*
X136286904Y-93480000D01*
X136239285Y-93527619D01*
X136191666Y-93622857D01*
X136191666Y-93765714D01*
X136239285Y-93860952D01*
X136286904Y-93908571D01*
X136382142Y-93956190D01*
X136763095Y-93956190D01*
X135572619Y-93432381D02*
X135477380Y-93432381D01*
X135382142Y-93480000D01*
X135334523Y-93527619D01*
X135286904Y-93622857D01*
X135239285Y-93813333D01*
X135239285Y-94051429D01*
X135286904Y-94241905D01*
X135334523Y-94337143D01*
X135382142Y-94384762D01*
X135477380Y-94432381D01*
X135572619Y-94432381D01*
X135667857Y-94384762D01*
X135715476Y-94337143D01*
X135763095Y-94241905D01*
X135810714Y-94051429D01*
X135810714Y-93813333D01*
X135763095Y-93622857D01*
X135715476Y-93527619D01*
X135667857Y-93480000D01*
X135572619Y-93432381D01*
X137072619Y-103322381D02*
X137405953Y-102846190D01*
X137644048Y-103322381D02*
X137644048Y-102322381D01*
X137263095Y-102322381D01*
X137167857Y-102370000D01*
X137120238Y-102417619D01*
X137072619Y-102512857D01*
X137072619Y-102655714D01*
X137120238Y-102750952D01*
X137167857Y-102798571D01*
X137263095Y-102846190D01*
X137644048Y-102846190D01*
X136691667Y-103274762D02*
X136548810Y-103322381D01*
X136310714Y-103322381D01*
X136215476Y-103274762D01*
X136167857Y-103227143D01*
X136120238Y-103131905D01*
X136120238Y-103036667D01*
X136167857Y-102941429D01*
X136215476Y-102893810D01*
X136310714Y-102846190D01*
X136501191Y-102798571D01*
X136596429Y-102750952D01*
X136644048Y-102703333D01*
X136691667Y-102608095D01*
X136691667Y-102512857D01*
X136644048Y-102417619D01*
X136596429Y-102370000D01*
X136501191Y-102322381D01*
X136263095Y-102322381D01*
X136120238Y-102370000D01*
X135834524Y-102322381D02*
X135263095Y-102322381D01*
X135548810Y-103322381D02*
X135548810Y-102322381D01*
X134588095Y-99734667D02*
X134111904Y-99734667D01*
X134683333Y-100020381D02*
X134350000Y-99020381D01*
X134016666Y-100020381D01*
X133683333Y-100020381D02*
X133683333Y-99020381D01*
X133445238Y-99020381D01*
X133302380Y-99068000D01*
X133207142Y-99163238D01*
X133159523Y-99258476D01*
X133111904Y-99448952D01*
X133111904Y-99591810D01*
X133159523Y-99782286D01*
X133207142Y-99877524D01*
X133302380Y-99972762D01*
X133445238Y-100020381D01*
X133683333Y-100020381D01*
X132111904Y-99925143D02*
X132159523Y-99972762D01*
X132302380Y-100020381D01*
X132397618Y-100020381D01*
X132540476Y-99972762D01*
X132635714Y-99877524D01*
X132683333Y-99782286D01*
X132730952Y-99591810D01*
X132730952Y-99448952D01*
X132683333Y-99258476D01*
X132635714Y-99163238D01*
X132540476Y-99068000D01*
X132397618Y-99020381D01*
X132302380Y-99020381D01*
X132159523Y-99068000D01*
X132111904Y-99115619D01*
X134111904Y-96528000D02*
X134207142Y-96480381D01*
X134349999Y-96480381D01*
X134492857Y-96528000D01*
X134588095Y-96623238D01*
X134635714Y-96718476D01*
X134683333Y-96908952D01*
X134683333Y-97051810D01*
X134635714Y-97242286D01*
X134588095Y-97337524D01*
X134492857Y-97432762D01*
X134349999Y-97480381D01*
X134254761Y-97480381D01*
X134111904Y-97432762D01*
X134064285Y-97385143D01*
X134064285Y-97051810D01*
X134254761Y-97051810D01*
X133635714Y-97480381D02*
X133635714Y-96480381D01*
X133064285Y-97480381D01*
X133064285Y-96480381D01*
X132588095Y-97480381D02*
X132588095Y-96480381D01*
X132350000Y-96480381D01*
X132207142Y-96528000D01*
X132111904Y-96623238D01*
X132064285Y-96718476D01*
X132016666Y-96908952D01*
X132016666Y-97051810D01*
X132064285Y-97242286D01*
X132111904Y-97337524D01*
X132207142Y-97432762D01*
X132350000Y-97480381D01*
X132588095Y-97480381D01*
X134588095Y-101560381D02*
X133969047Y-101560381D01*
X134302381Y-101941333D01*
X134159523Y-101941333D01*
X134064285Y-101988952D01*
X134016666Y-102036571D01*
X133969047Y-102131810D01*
X133969047Y-102369905D01*
X134016666Y-102465143D01*
X134064285Y-102512762D01*
X134159523Y-102560381D01*
X134445238Y-102560381D01*
X134540476Y-102512762D01*
X134588095Y-102465143D01*
X133683333Y-101560381D02*
X133350000Y-102560381D01*
X133016666Y-101560381D01*
X132778571Y-101560381D02*
X132159523Y-101560381D01*
X132492857Y-101941333D01*
X132349999Y-101941333D01*
X132254761Y-101988952D01*
X132207142Y-102036571D01*
X132159523Y-102131810D01*
X132159523Y-102369905D01*
X132207142Y-102465143D01*
X132254761Y-102512762D01*
X132349999Y-102560381D01*
X132635714Y-102560381D01*
X132730952Y-102512762D01*
X132778571Y-102465143D01*
X134064285Y-93988000D02*
X134159523Y-93940381D01*
X134302380Y-93940381D01*
X134445238Y-93988000D01*
X134540476Y-94083238D01*
X134588095Y-94178476D01*
X134635714Y-94368952D01*
X134635714Y-94511810D01*
X134588095Y-94702286D01*
X134540476Y-94797524D01*
X134445238Y-94892762D01*
X134302380Y-94940381D01*
X134207142Y-94940381D01*
X134064285Y-94892762D01*
X134016666Y-94845143D01*
X134016666Y-94511810D01*
X134207142Y-94511810D01*
X133588095Y-94940381D02*
X133588095Y-93940381D01*
X133207142Y-93940381D01*
X133111904Y-93988000D01*
X133064285Y-94035619D01*
X133016666Y-94130857D01*
X133016666Y-94273714D01*
X133064285Y-94368952D01*
X133111904Y-94416571D01*
X133207142Y-94464190D01*
X133588095Y-94464190D01*
X132635714Y-94035619D02*
X132588095Y-93988000D01*
X132492857Y-93940381D01*
X132254761Y-93940381D01*
X132159523Y-93988000D01*
X132111904Y-94035619D01*
X132064285Y-94130857D01*
X132064285Y-94226095D01*
X132111904Y-94368952D01*
X132683333Y-94940381D01*
X132064285Y-94940381D01*
M02*
